<svg width="8" height="9" viewBox="0 0 8 9" fill="none" xmlns="http://www.w3.org/2000/svg">
<path d="M0.540381 7.04038C0.28654 7.29422 0.28654 7.70578 0.540381 7.95962C0.794221 8.21346 1.20578 8.21346 1.45962 7.95962L0.540381 7.04038ZM7.65 1.5C7.65 1.14101 7.35899 0.85 7 0.85L1.15 0.85C0.791016 0.85 0.5 1.14101 0.500001 1.5C0.5 1.85898 0.791016 2.15 1.15 2.15H6.35V7.35C6.35 7.70898 6.64102 8 7 8C7.35899 8 7.65 7.70898 7.65 7.35L7.65 1.5ZM1.45962 7.95962L7.45962 1.95962L6.54038 1.04038L0.540381 7.04038L1.45962 7.95962Z" fill="#141418"/>
</svg>
