<svg width="8" height="8" viewBox="0 0 8 8" fill="none" xmlns="http://www.w3.org/2000/svg">
<path d="M0.704443 6.54038C0.450602 6.79422 0.450602 7.20578 0.704443 7.45962C0.958284 7.71346 1.36984 7.71346 1.62368 7.45962L0.704443 6.54038ZM7.81406 1C7.81406 0.641015 7.52305 0.35 7.16406 0.35L1.31406 0.35C0.955078 0.35 0.664063 0.641015 0.664063 1C0.664063 1.35898 0.955078 1.65 1.31406 1.65H6.51406V6.85C6.51406 7.20898 6.80508 7.5 7.16406 7.5C7.52305 7.5 7.81406 7.20898 7.81406 6.85L7.81406 1ZM1.62368 7.45962L7.62368 1.45962L6.70444 0.54038L0.704443 6.54038L1.62368 7.45962Z" fill="#CAEE17"/>
</svg>
