<svg width="90" height="15" viewBox="0 0 90 15" fill="none" xmlns="http://www.w3.org/2000/svg">
<path d="M84.7823 14.4564C81.7816 14.4564 79.4297 12.3275 79.4297 8.90104C79.4297 5.73812 81.6802 3.42676 84.8431 3.42676C88.0872 3.42676 89.993 5.85977 89.993 8.51581C89.993 9.06324 89.9322 9.61067 89.8714 9.91479H81.9438C82.3088 11.4152 83.4644 12.2464 84.904 12.2464C86.0394 12.2464 87.0937 11.6585 87.5397 10.9488L89.3848 12.2059C88.5535 13.5035 86.972 14.4564 84.7823 14.4564ZM81.9641 7.88728H87.5397C87.4586 6.69105 86.4246 5.57592 84.8431 5.57592C83.3631 5.57592 82.3088 6.50857 81.9641 7.88728Z" fill="#1B17EE"/>
<path d="M75.1289 14.1926V0H77.6633V14.1926H75.1289Z" fill="#1B17EE"/>
<path d="M67.7224 14.4564C64.4581 14.4564 62.0859 12.1451 62.0859 8.94159C62.0859 5.7584 64.4581 3.42676 67.7224 3.42676C70.8448 3.42676 73.3589 5.7584 73.3589 8.94159C73.3589 12.1451 70.8448 14.4564 67.7224 14.4564ZM64.6609 8.94159C64.6609 10.888 65.999 12.1451 67.7224 12.1451C69.4458 12.1451 70.784 10.888 70.784 8.94159C70.784 7.056 69.4458 5.73812 67.7224 5.73812C65.999 5.73812 64.6609 7.056 64.6609 8.94159Z" fill="#1B17EE"/>
<path d="M56.5334 14.4562C54.4451 14.4562 52.965 12.9558 52.6203 10.2998V14.1926H50.0859V0H52.6203V7.40042C52.965 4.86603 54.587 3.42649 56.5334 3.42649C59.2097 3.42649 60.9939 5.67703 60.9939 8.94132C60.9939 12.0637 59.1895 14.4562 56.5334 14.4562ZM52.4987 8.94132C52.4987 10.7864 53.776 12.1448 55.4386 12.1448C57.1011 12.1448 58.3987 10.8877 58.3987 8.94132C58.3987 7.03546 57.1011 5.73786 55.4588 5.73786C53.8774 5.73786 52.4987 6.95436 52.4987 8.94132Z" fill="#1B17EE"/>
<path d="M41.7397 14.4564C39.7933 14.4564 38.293 13.1588 38.293 11.111C38.293 9.16461 39.7325 8.00893 41.76 7.82646L45.0446 7.52233C45.0446 6.42747 44.2336 5.59619 42.9562 5.59619C41.6586 5.59619 41.0909 6.44775 40.949 7.09655L38.6985 6.46802C39.2053 4.54189 40.7665 3.42676 42.9562 3.42676C46.1192 3.42676 47.5181 5.57592 47.5181 7.62371V14.1928H45.0243V11.0502C45.0243 13.2602 43.7064 14.4564 41.7397 14.4564ZM40.7868 11.0907C40.7868 11.8815 41.4762 12.4086 42.4494 12.4086C44.2336 12.4086 45.0446 11.2529 45.0446 9.93507V9.46874L42.3074 9.73232C41.3951 9.83369 40.7868 10.2797 40.7868 11.0907Z" fill="#1B17EE"/>
<path d="M34.5061 14.1933C32.6205 14.1933 31.2418 13.3823 31.2418 11.0912V5.92104H29.3359V3.69078H31.2823V1.33887H33.7356V3.69078H36.7161V5.92104H33.7356V10.8479C33.7356 11.6183 34.1209 11.9022 34.7494 11.9022H36.4931V14.1933H34.5061Z" fill="#1B17EE"/>
<path d="M23.1261 14.4564C20.1254 14.4564 17.7734 12.3275 17.7734 8.90104C17.7734 5.73812 20.024 3.42676 23.1869 3.42676C26.4309 3.42676 28.3368 5.85977 28.3368 8.51581C28.3368 9.06324 28.2759 9.61067 28.2151 9.91479H20.2876C20.6525 11.4152 21.8082 12.2464 23.2477 12.2464C24.3831 12.2464 25.4374 11.6585 25.8835 10.9488L27.7285 12.2059C26.8972 13.5035 25.3158 14.4564 23.1261 14.4564ZM20.3078 7.88728H25.8835C25.8024 6.69105 24.7683 5.57592 23.1869 5.57592C21.7068 5.57592 20.6525 6.50857 20.3078 7.88728Z" fill="#1B17EE"/>
<g clip-path="url(#clip0_903_1475)">
<path d="M5.25125 14.2629L2.55466 0.394715V14.2629H0V0.0703125H5.08905L7.76537 13.9385L10.4822 0.0703125H15.5713V14.2629H13.0166V0.394715L10.32 14.2629H5.25125Z" fill="#1B17EE"/>
</g>
<g clip-path="url(#clip1_903_1475)">
<path d="M-2.50265 14.2629L-5.19924 0.394715V14.2629H-7.75391V0.0703125H-2.66485L0.0114617 13.9385L2.72833 0.0703125H7.81738V14.2629H5.26272V0.394715L2.56612 14.2629H-2.50265Z" fill="#1B17EE"/>
</g>
<defs>
<clipPath id="clip0_903_1475">
<rect width="7.7533" height="14.3612" fill="white" transform="translate(7.75391 0.0878906)"/>
</clipPath>
<clipPath id="clip1_903_1475">
<rect width="7.7533" height="14.3612" fill="white" transform="translate(0 0.0878906)"/>
</clipPath>
</defs>
</svg>
